<?xml version="1.0" standalone="no"?>
<!DOCTYPE svg PUBLIC "-//W3C//DTD SVG 20010904//EN"
 "http://www.w3.org/TR/2001/REC-SVG-20010904/DTD/svg10.dtd">
<svg version="1.0" xmlns="http://www.w3.org/2000/svg"
 width="241.000000pt" height="238.000000pt" viewBox="0 0 241.000000 238.000000"
 preserveAspectRatio="xMidYMid meet">
<metadata>
Created by potrace 1.15, written by Peter Selinger 2001-2017
</metadata>
<g transform="translate(0.000000,238.000000) scale(0.100000,-0.100000)"
fill="#000000" stroke="none">
<path d="M1243 2152 c-61 -22 -126 -64 -147 -97 -8 -13 -27 -36 -41 -51 -37
-40 -48 -95 -41 -201 5 -70 13 -106 35 -155 16 -35 36 -85 46 -111 9 -27 33
-64 51 -82 19 -19 34 -38 34 -41 0 -4 7 -15 16 -25 20 -23 38 -100 25 -108 -5
-4 -25 -33 -43 -66 -20 -36 -45 -66 -63 -75 -17 -9 -41 -23 -55 -32 -14 -8
-66 -28 -117 -43 -189 -57 -255 -162 -298 -473 -9 -64 -21 -130 -26 -147 -5
-16 -17 -77 -28 -135 -10 -58 -22 -112 -26 -121 -4 -11 0 -19 11 -23 12 -5 34
10 75 49 32 30 67 55 78 55 12 0 21 -3 21 -6 0 -4 -18 -38 -40 -76 -45 -79
-45 -78 -26 -78 8 0 24 20 36 45 27 56 36 62 43 27 12 -59 26 -66 141 -70 58
-2 118 0 135 6 16 6 32 8 35 5 3 -3 -11 -30 -30 -60 -28 -43 -31 -54 -17 -51
15 3 94 121 91 137 -1 3 2 14 6 24 5 9 5 25 0 35 -4 9 -6 23 -5 29 1 7 -6 24
-15 38 -15 24 -15 25 2 25 11 0 34 9 52 20 18 11 43 20 56 20 31 0 107 33 124
53 19 22 11 50 -16 62 -15 7 -22 18 -22 37 0 29 -23 58 -46 58 -29 0 -13 20
25 30 51 13 108 77 88 97 -7 8 -37 16 -65 20 -29 3 -57 12 -63 19 -15 18 -54
18 -115 -1 -66 -20 -103 -19 -139 5 -52 34 -144 16 -128 -26 2 -7 -3 -37 -12
-65 -14 -40 -16 -71 -12 -133 3 -45 9 -89 12 -98 14 -36 -36 -20 -76 24 l-39
43 0 143 c0 79 -4 151 -9 160 -12 23 -2 72 16 79 10 4 30 -11 55 -41 22 -25
44 -46 49 -46 20 0 7 26 -32 66 -42 42 -54 83 -31 106 7 7 15 -7 27 -41 9 -28
21 -53 26 -56 14 -9 10 27 -6 55 -19 34 -19 69 2 92 15 17 18 17 34 2 22 -20
54 -11 74 20 14 20 20 22 63 16 27 -5 55 -4 66 2 10 6 31 14 47 18 27 8 28 7
38 -43 6 -29 13 -69 16 -90 l6 -38 70 7 69 7 0 -42 c0 -37 2 -41 25 -41 14 0
25 -4 25 -8 0 -5 19 -14 41 -21 23 -7 84 -35 137 -62 86 -43 98 -47 112 -34
26 24 36 18 63 -37 l25 -53 -31 -15 c-22 -11 -31 -12 -34 -4 -4 13 -82 7 -97
-7 -6 -5 -19 -9 -30 -10 -21 0 -21 0 -1 -8 11 -5 22 -4 23 0 5 13 42 11 42 -2
0 -7 24 -9 70 -7 39 2 70 1 70 -1 0 -2 -8 -10 -17 -17 -17 -12 -17 -13 -1 -14
19 0 25 -18 64 -195 25 -114 37 -146 49 -133 7 6 -8 70 -47 198 -16 56 -28
117 -28 151 0 41 -7 71 -25 107 -14 28 -25 53 -25 56 0 3 52 44 115 91 79 58
113 89 109 99 -3 8 -21 27 -40 41 l-35 27 41 29 c31 22 40 35 35 47 -14 33
-16 94 -4 110 11 14 11 15 -1 5 -8 -7 -18 -13 -22 -13 -10 0 -11 37 0 43 4 3
41 -2 83 -10 l76 -15 6 -212 c7 -223 28 -360 66 -432 32 -58 31 -25 -1 86 -25
86 -31 128 -34 235 -2 72 -6 167 -7 213 -2 53 0 82 7 82 36 0 150 -151 203
-267 22 -47 28 -53 33 -38 16 45 -113 251 -199 317 -45 35 -69 46 -125 56
-120 22 -246 91 -297 164 -18 24 -22 43 -21 97 1 36 -2 84 -6 106 -6 29 -4 43
5 50 19 14 21 161 3 200 -7 17 -15 44 -17 60 -14 112 -50 172 -153 257 l-65
53 -90 3 c-67 2 -103 -2 -142 -16z m249 -77 c22 -15 46 -41 54 -60 7 -18 18
-37 24 -40 8 -5 8 -11 0 -20 -8 -10 -7 -14 2 -18 10 -4 10 -7 1 -18 -9 -9 -10
-16 -2 -26 7 -7 8 -13 4 -13 -5 0 -1 -8 7 -17 16 -20 48 -129 48 -167 0 -13 9
-30 20 -37 16 -11 22 -32 30 -109 5 -52 10 -121 10 -152 0 -55 -3 -61 -62
-142 -58 -79 -66 -86 -105 -92 -23 -3 -49 -1 -60 5 -16 9 -15 10 9 11 35 0 75
19 83 38 4 11 0 13 -17 8 -62 -17 -80 -17 -143 4 -72 24 -115 58 -115 93 -1
12 -8 40 -16 62 -9 22 -19 58 -22 79 -7 42 -32 63 -32 27 0 -25 -12 -27 -30
-6 -7 9 -9 22 -4 32 4 10 8 29 8 43 1 19 8 27 34 35 37 10 37 26 1 36 -26 7
-17 12 17 10 11 -1 26 5 33 13 21 25 32 7 16 -24 -19 -37 -19 -40 5 -40 22 0
27 -31 11 -74 -16 -40 31 -62 94 -45 45 13 45 25 0 33 -30 6 -35 11 -35 36 0
57 -22 133 -46 157 -19 19 -21 25 -9 29 31 12 12 19 -60 22 -66 2 -75 0 -85
-18 -15 -28 -40 -26 -40 5 0 14 -9 42 -20 62 -26 48 -26 124 0 181 26 57 55
67 131 46 64 -18 82 -13 95 28 3 11 12 17 20 14 8 -3 14 0 14 7 0 44 67 45
132 2z m359 -904 c6 -14 23 -53 39 -86 17 -33 30 -68 30 -77 0 -18 -45 -58
-66 -58 -21 0 -18 -6 27 -47 l41 -38 -86 -59 c-48 -32 -91 -66 -96 -75 -26
-46 -28 -46 -49 -27 -11 10 -58 32 -103 48 -46 16 -114 40 -151 54 -38 13 -77
24 -88 24 -16 0 -18 5 -12 47 l6 46 -60 -6 c-33 -4 -67 -9 -76 -13 -14 -5 -17
0 -17 24 0 17 -7 64 -15 106 l-14 76 54 53 55 54 16 -25 c56 -86 234 -302 314
-381 l95 -95 3 45 c2 24 12 104 22 177 11 74 20 179 20 233 l0 99 51 -37 c28
-20 55 -48 60 -62z m-773 -553 c9 -9 12 -9 12 1 0 8 14 11 48 9 47 -3 47 -3
50 -40 3 -33 0 -38 -18 -38 -12 0 -30 5 -40 10 -13 7 -41 5 -92 -5 -105 -23
-111 -37 -11 -29 l82 7 7 -27 c7 -29 24 -26 24 6 0 18 4 19 53 13 50 -7 77
-24 77 -51 0 -8 -24 -15 -67 -19 -38 -4 -93 -13 -124 -20 -31 -8 -66 -11 -78
-8 -12 3 -21 1 -21 -6 0 -20 31 -24 83 -11 82 21 220 29 236 14 19 -18 6 -44
-22 -44 -13 0 -45 -6 -70 -14 -44 -13 -47 -13 -47 5 0 23 -27 15 -35 -11 -3
-11 -26 -25 -52 -34 -26 -9 -54 -23 -63 -31 -14 -13 -20 -12 -56 12 -54 37
-65 53 -60 88 2 21 -4 39 -20 58 -28 33 -29 40 -9 57 13 11 13 16 -1 42 -21
41 -12 59 26 52 16 -4 30 -2 30 3 0 5 15 7 34 5 19 -2 43 1 53 7 24 14 56 14
71 -1z m-398 -72 c0 -49 36 -136 57 -136 7 0 13 -4 13 -10 0 -5 6 -10 14 -10
8 0 18 -4 21 -10 11 -19 -15 -48 -84 -94 -38 -25 -71 -51 -74 -58 -16 -41 -4
81 13 124 14 38 20 77 20 136 0 48 4 82 10 82 6 0 10 -11 10 -24z m185 -249
c37 -51 91 -83 166 -99 46 -9 55 -15 52 -29 -4 -13 -19 -20 -49 -25 -53 -8
-230 -1 -240 9 -4 4 -9 31 -12 60 -5 57 17 127 40 126 7 0 27 -19 43 -42z"/>
</g>
</svg>
